<svg width="51" height="93" viewBox="0 0 51 93" fill="none" xmlns="http://www.w3.org/2000/svg">
<path d="M6.95 85.04L6.2053 85.7074L6.20778 85.7102L6.95 85.04ZM44.05 85.04L44.7922 85.7102L44.7947 85.7074L44.05 85.04ZM44.05 42.06L44.7947 41.3926L44.7922 41.3898L44.05 42.06ZM6.95 42.06L6.20777 41.3898L6.20531 41.3926L6.95 42.06ZM34.3 63.55C34.3 66.9123 33.5141 69.2479 32.1189 70.7427C30.7359 72.2245 28.5942 73.05 25.5 73.05L25.5 75.05C28.9392 75.05 31.6974 74.1255 33.5811 72.1073C35.4526 70.1021 36.3 67.1876 36.3 63.55L34.3 63.55ZM25.5 73.05C22.4058 73.05 20.264 72.2245 18.8811 70.7427C17.4859 69.2479 16.7 66.9124 16.7 63.55L14.7 63.55C14.7 67.1876 15.5474 70.1021 17.4189 72.1073C19.3026 74.1255 22.0608 75.05 25.5 75.05L25.5 73.05ZM16.7 63.55C16.7 60.1876 17.4859 57.8521 18.8811 56.3573C20.264 54.8755 22.4058 54.05 25.5 54.05L25.5 52.05C22.0608 52.05 19.3026 52.9745 17.4189 54.9927C15.5474 56.9979 14.7 59.9124 14.7 63.55L16.7 63.55ZM25.5 54.05C28.5942 54.05 30.7359 54.8755 32.1189 56.3573C33.5141 57.8521 34.3 60.1876 34.3 63.55L36.3 63.55C36.3 59.9124 35.4526 56.9979 33.5811 54.9927C31.6974 52.9745 28.9392 52.05 25.5 52.05L25.5 54.05ZM-0.700004 63.55C-0.700004 73.0753 1.55074 80.5139 6.20531 85.7074L7.69469 84.3726C3.48259 79.6728 1.3 72.7847 1.3 63.55L-0.700004 63.55ZM6.20778 85.7102C10.7813 90.7755 17.2634 93.25 25.5 93.25L25.5 91.25C17.6833 91.25 11.7987 88.9179 7.69222 84.3698L6.20778 85.7102ZM25.5 93.25C33.7366 93.25 40.2187 90.7755 44.7922 85.7102L43.3078 84.3698C39.2013 88.9179 33.3167 91.25 25.5 91.25L25.5 93.25ZM44.7947 85.7074C49.4493 80.5139 51.7 73.0753 51.7 63.55L49.7 63.55C49.7 72.7847 47.5174 79.6728 43.3053 84.3726L44.7947 85.7074ZM51.7 63.55C51.7 54.0247 49.4493 46.5861 44.7947 41.3926L43.3053 42.7274C47.5174 47.4272 49.7 54.3153 49.7 63.55L51.7 63.55ZM44.7922 41.3898C40.2187 36.3245 33.7366 33.85 25.5 33.85L25.5 35.85C33.3167 35.85 39.2013 38.1821 43.3078 42.7302L44.7922 41.3898ZM25.5 33.85C17.2633 33.85 10.7813 36.3245 6.20778 41.3898L7.69221 42.7302C11.7987 38.1821 17.6833 35.85 25.5 35.85L25.5 33.85ZM6.20531 41.3926C1.55074 46.5861 -0.700004 54.0247 -0.700004 63.55L1.3 63.55C1.3 54.3153 3.48258 47.4272 7.69469 42.7274L6.20531 41.3926ZM0.999993 19.0754L-7.08976e-06 19.0754L-7.07765e-06 19.3524L0.1425 19.5899L0.999993 19.0754ZM9.4 33.0754L8.5425 33.5899L8.8338 34.0754L9.4 34.0754L9.4 33.0754ZM26.9 33.0754L26.9 34.0754L28.6662 34.0754L27.7575 32.5609L26.9 33.0754ZM18.5 19.0754L18.5 18.0754L16.7338 18.0754L17.6425 19.5899L18.5 19.0754ZM50 19.0754L50 20.0754L51 20.0754L51 19.0754L50 19.0754ZM50 0.875386L51 0.875386L51 -0.124614L50 -0.124614L50 0.875386ZM0.999992 0.875388L0.999992 -0.124612L-7.92901e-06 -0.124612L-7.8853e-06 0.875388L0.999992 0.875388ZM0.1425 19.5899L8.5425 33.5899L10.2575 32.5609L1.85749 18.5609L0.1425 19.5899ZM9.4 34.0754L26.9 34.0754L26.9 32.0754L9.4 32.0754L9.4 34.0754ZM27.7575 32.5609L19.3575 18.5609L17.6425 19.5899L26.0425 33.5899L27.7575 32.5609ZM18.5 20.0754L50 20.0754L50 18.0754L18.5 18.0754L18.5 20.0754ZM51 19.0754L51 0.875386L49 0.875386L49 19.0754L51 19.0754ZM50 -0.124614L0.999992 -0.124612L0.999992 1.87539L50 1.87539L50 -0.124614ZM-7.8853e-06 0.875388L-7.08976e-06 19.0754L1.99999 19.0754L1.99999 0.875388L-7.8853e-06 0.875388Z" fill="#FFBC1C"/>
</svg>
