<svg width="51" height="119" viewBox="0 0 51 119" fill="none" xmlns="http://www.w3.org/2000/svg">
<path d="M6.95 111.04L6.2053 111.707L6.20778 111.71L6.95 111.04ZM44.05 111.04L44.7922 111.71L44.7947 111.707L44.05 111.04ZM44.05 68.06L44.7947 67.3926L44.7922 67.3898L44.05 68.06ZM6.95 68.06L6.20777 67.3898L6.20531 67.3926L6.95 68.06ZM34.3 89.55C34.3 92.9123 33.5141 95.2479 32.1189 96.7427C30.7359 98.2245 28.5942 99.05 25.5 99.05L25.5 101.05C28.9392 101.05 31.6974 100.126 33.5811 98.1073C35.4526 96.1021 36.3 93.1876 36.3 89.55L34.3 89.55ZM25.5 99.05C22.4058 99.05 20.264 98.2245 18.8811 96.7427C17.4859 95.2479 16.7 92.9124 16.7 89.55L14.7 89.55C14.7 93.1876 15.5474 96.1021 17.4189 98.1073C19.3026 100.126 22.0608 101.05 25.5 101.05L25.5 99.05ZM16.7 89.55C16.7 86.1876 17.4859 83.8521 18.8811 82.3573C20.264 80.8755 22.4058 80.05 25.5 80.05L25.5 78.05C22.0608 78.05 19.3026 78.9745 17.4189 80.9927C15.5474 82.9979 14.7 85.9124 14.7 89.55L16.7 89.55ZM25.5 80.05C28.5942 80.05 30.7359 80.8755 32.1189 82.3573C33.5141 83.8521 34.3 86.1876 34.3 89.55L36.3 89.55C36.3 85.9124 35.4526 82.9979 33.5811 80.9927C31.6974 78.9745 28.9392 78.05 25.5 78.05L25.5 80.05ZM-0.700004 89.55C-0.700004 99.0753 1.55074 106.514 6.20531 111.707L7.69469 110.373C3.48259 105.673 1.3 98.7847 1.3 89.55L-0.700004 89.55ZM6.20778 111.71C10.7813 116.775 17.2634 119.25 25.5 119.25L25.5 117.25C17.6833 117.25 11.7987 114.918 7.69222 110.37L6.20778 111.71ZM25.5 119.25C33.7366 119.25 40.2187 116.775 44.7922 111.71L43.3078 110.37C39.2013 114.918 33.3167 117.25 25.5 117.25L25.5 119.25ZM44.7947 111.707C49.4493 106.514 51.7 99.0753 51.7 89.55L49.7 89.55C49.7 98.7847 47.5174 105.673 43.3053 110.373L44.7947 111.707ZM51.7 89.55C51.7 80.0247 49.4493 72.5861 44.7947 67.3926L43.3053 68.7274C47.5174 73.4272 49.7 80.3153 49.7 89.55L51.7 89.55ZM44.7922 67.3898C40.2187 62.3245 33.7366 59.85 25.5 59.85L25.5 61.85C33.3167 61.85 39.2013 64.1821 43.3078 68.7302L44.7922 67.3898ZM25.5 59.85C17.2633 59.85 10.7813 62.3245 6.20778 67.3898L7.69221 68.7302C11.7987 64.1821 17.6833 61.85 25.5 61.85L25.5 59.85ZM6.20531 67.3926C1.55074 72.5861 -0.700004 80.0247 -0.700004 89.55L1.3 89.55C1.3 80.3153 3.48258 73.4272 7.69469 68.7274L6.20531 67.3926ZM4.28999 6.78538L3.43797 6.26186L3.43492 6.26688L4.28999 6.78538ZM5.12999 51.5854L4.34648 52.2068L4.3511 52.2125L5.12999 51.5854ZM20.25 56.9754L20.25 57.9754L21.25 57.9754L21.25 56.9754L20.25 56.9754ZM20.25 38.7754L21.25 38.7754L21.25 37.7754L20.25 37.7754L20.25 38.7754ZM15.63 36.4654L16.4852 35.9471L16.4826 35.9428L15.63 36.4654ZM15.42 20.5754L14.5562 20.0715L14.5502 20.0818L14.5444 20.0923L15.42 20.5754ZM16.61 19.5254L16.3931 18.5492L16.3575 18.5571L16.3226 18.5676L16.61 19.5254ZM17.24 19.3854L17.24 18.3854L17.1302 18.3854L17.0231 18.4092L17.24 19.3854ZM20.11 20.8554L20.9617 20.3313L20.9603 20.329L20.11 20.8554ZM23.75 29.3954L22.8137 29.7465L22.8149 29.7497L23.75 29.3954ZM34.6 56.9754L33.6726 57.3495L33.9251 57.9754L34.6 57.9754L34.6 56.9754ZM50 56.9754L50 57.9754L51 57.9754L51 56.9754L50 56.9754ZM50 2.37539L51 2.37539L51 1.37539L50 1.37539L50 2.37539ZM34.6 2.37539L34.6 1.37539L33.6 1.37539L33.6 2.37539L34.6 2.37539ZM34.6 27.2954L33.6357 27.5603L35.6 27.2954L34.6 27.2954ZM26.76 6.15539L25.9366 6.72287L25.9391 6.72645L26.76 6.15539ZM15.77 -0.0246139C10.2147 -0.0246137 6.03178 2.04059 3.43798 6.26186L5.142 7.30891C7.30821 3.78352 10.7786 1.97539 15.77 1.97539L15.77 -0.0246139ZM3.43492 6.26688C0.622262 10.9053 -0.700007 18.6849 -0.700007 29.3954L1.29999 29.3954C1.29999 18.7326 2.63772 11.4388 5.14507 7.30389L3.43492 6.26688ZM-0.700007 29.3954C-0.700006 40.1544 0.898839 47.8597 4.3465 52.2068L5.91349 50.964C2.92115 47.191 1.29999 40.103 1.29999 29.3954L-0.700007 29.3954ZM4.3511 52.2125C7.52005 56.1482 12.9308 57.9754 20.25 57.9754L20.25 55.9754C13.1958 55.9754 8.52661 54.2093 5.90889 50.9582L4.3511 52.2125ZM21.25 56.9754L21.25 38.7754L19.25 38.7754L19.25 56.9754L21.25 56.9754ZM20.25 37.7754C18.3743 37.7754 17.1999 37.1263 16.4852 35.9471L14.7748 36.9837C15.9268 38.8844 17.8324 39.7754 20.25 39.7754L20.25 37.7754ZM16.4826 35.9428C15.7465 34.7418 15.3 32.6201 15.3 29.3954L13.3 29.3954C13.3 32.704 13.7402 35.2956 14.7774 36.988L16.4826 35.9428ZM15.3 29.3954C15.3 27.1547 15.3927 25.3339 15.572 23.9214C15.7547 22.4832 16.0164 21.5644 16.2956 21.0585L14.5444 20.0923C14.0769 20.9397 13.7787 22.1676 13.588 23.6694C13.394 25.1969 13.3 27.1094 13.3 29.3954L15.3 29.3954ZM16.2838 21.0793C16.526 20.6641 16.7447 20.529 16.8973 20.4832L16.3226 18.5676C15.542 18.8018 14.9674 19.3667 14.5562 20.0715L16.2838 21.0793ZM16.8269 20.5016L17.4569 20.3616L17.0231 18.4092L16.3931 18.5492L16.8269 20.5016ZM17.24 20.3854L17.94 20.3854L17.94 18.3854L17.24 18.3854L17.24 20.3854ZM17.94 20.3854C18.3112 20.3854 18.7599 20.5744 19.2597 21.3817L20.9603 20.329C20.2467 19.1764 19.2488 18.3854 17.94 18.3854L17.94 20.3854ZM19.2583 21.3795C19.9445 22.4945 21.125 25.2435 22.8137 29.7465L24.6863 29.0443C23.015 24.5873 21.7688 21.6429 20.9617 20.3313L19.2583 21.3795ZM22.8149 29.7497C25.6649 37.2719 29.2844 46.4723 33.6726 57.3495L35.5274 56.6013C31.1423 45.7318 27.5284 36.5455 24.6851 29.0411L22.8149 29.7497ZM34.6 57.9754L50 57.9754L50 55.9754L34.6 55.9754L34.6 57.9754ZM51 56.9754L51 2.37539L49 2.37539L49 56.9754L51 56.9754ZM50 1.37539L34.6 1.37539L34.6 3.37539L50 3.37539L50 1.37539ZM33.6 2.37539L33.6 27.2954L35.6 27.2954L35.6 2.37539L33.6 2.37539ZM35.5643 27.0305C34.0666 21.5782 32.658 17.068 31.3376 13.5077C30.0232 9.96339 28.7749 7.30063 27.5809 5.58432L25.9391 6.72645C26.9851 8.23014 28.1635 10.7007 29.4624 14.2031C30.7553 17.6894 32.1467 22.1392 33.6357 27.5603L35.5643 27.0305ZM27.5834 5.58791C24.9813 1.81239 20.9778 -0.0246142 15.77 -0.0246139L15.77 1.97539C20.4555 1.97539 23.7787 3.59172 25.9366 6.72286L27.5834 5.58791Z" fill="#FFBC1C"/>
</svg>
