<svg width="51" height="120" viewBox="0 0 51 120" fill="none" xmlns="http://www.w3.org/2000/svg">
<path d="M6.95 112.04L6.2053 112.707L6.20778 112.71L6.95 112.04ZM44.05 112.04L44.7922 112.71L44.7947 112.707L44.05 112.04ZM44.05 69.06L44.7947 68.3926L44.7922 68.3898L44.05 69.06ZM6.95 69.06L6.20777 68.3898L6.20531 68.3926L6.95 69.06ZM34.3 90.55C34.3 93.9123 33.5141 96.2479 32.1189 97.7427C30.7359 99.2245 28.5942 100.05 25.5 100.05L25.5 102.05C28.9392 102.05 31.6974 101.126 33.5811 99.1073C35.4526 97.1021 36.3 94.1876 36.3 90.55L34.3 90.55ZM25.5 100.05C22.4058 100.05 20.264 99.2245 18.8811 97.7427C17.4859 96.2479 16.7 93.9124 16.7 90.55L14.7 90.55C14.7 94.1876 15.5474 97.1021 17.4189 99.1073C19.3026 101.126 22.0608 102.05 25.5 102.05L25.5 100.05ZM16.7 90.55C16.7 87.1876 17.4859 84.8521 18.8811 83.3573C20.264 81.8755 22.4058 81.05 25.5 81.05L25.5 79.05C22.0608 79.05 19.3026 79.9745 17.4189 81.9927C15.5474 83.9979 14.7 86.9124 14.7 90.55L16.7 90.55ZM25.5 81.05C28.5942 81.05 30.7359 81.8755 32.1189 83.3573C33.5141 84.8521 34.3 87.1876 34.3 90.55L36.3 90.55C36.3 86.9124 35.4526 83.9979 33.5811 81.9927C31.6974 79.9745 28.9392 79.05 25.5 79.05L25.5 81.05ZM-0.700004 90.55C-0.700004 100.075 1.55074 107.514 6.20531 112.707L7.69469 111.373C3.48259 106.673 1.3 99.7847 1.3 90.55L-0.700004 90.55ZM6.20778 112.71C10.7813 117.775 17.2634 120.25 25.5 120.25L25.5 118.25C17.6833 118.25 11.7987 115.918 7.69222 111.37L6.20778 112.71ZM25.5 120.25C33.7366 120.25 40.2187 117.775 44.7922 112.71L43.3078 111.37C39.2013 115.918 33.3167 118.25 25.5 118.25L25.5 120.25ZM44.7947 112.707C49.4493 107.514 51.7 100.075 51.7 90.55L49.7 90.55C49.7 99.7847 47.5174 106.673 43.3053 111.373L44.7947 112.707ZM51.7 90.55C51.7 81.0247 49.4493 73.5861 44.7947 68.3926L43.3053 69.7274C47.5174 74.4272 49.7 81.3153 49.7 90.55L51.7 90.55ZM44.7922 68.3898C40.2187 63.3245 33.7366 60.85 25.5 60.85L25.5 62.85C33.3167 62.85 39.2013 65.1821 43.3078 69.7302L44.7922 68.3898ZM25.5 60.85C17.2633 60.85 10.7813 63.3245 6.20778 68.3898L7.69221 69.7302C11.7987 65.1821 17.6833 62.85 25.5 62.85L25.5 60.85ZM6.20531 68.3926C1.55074 73.5861 -0.700004 81.0247 -0.700004 90.55L1.3 90.55C1.3 81.3153 3.48258 74.4272 7.69469 69.7274L6.20531 68.3926ZM25.15 8.67898L24.2083 9.01532L25.1981 11.787L26.1017 8.98598L25.15 8.67898ZM21.09 3.14898L20.5645 3.99981L20.5722 4.00448L21.09 3.14898ZM3.58999 7.83898L2.69964 7.38369L2.69749 7.38793L3.58999 7.83898ZM4.99 53.269L4.18164 53.8577L4.18297 53.8595L4.99 53.269ZM18.85 59.009L18.85 60.009L19.85 60.009L19.85 59.009L18.85 59.009ZM18.85 40.809L19.85 40.809L19.85 39.809L18.85 39.809L18.85 40.809ZM15.14 39.059L16.0553 38.6562L16.0517 38.648L16.048 38.6399L15.14 39.059ZM14.86 21.559L13.8952 21.2959L13.8938 21.3013L14.86 21.559ZM18.29 21.769L19.2601 21.5264L19.2567 21.5128L19.253 21.4993L18.29 21.769ZM18.85 35.769L17.85 35.769L17.85 36.769L18.85 36.769L18.85 35.769ZM31.45 35.769L31.45 36.769L32.45 36.769L32.45 35.769L31.45 35.769ZM32.22 21.349L33.1764 21.6412L33.1788 21.6331L32.22 21.349ZM36 20.999L36.957 20.709L36.9491 20.6829L36.9398 20.6572L36 20.999ZM35.86 39.619L34.9408 39.2251L34.9373 39.2333L34.9339 39.2417L35.86 39.619ZM32.15 41.509L32.15 40.509L31.15 40.509L31.15 41.509L32.15 41.509ZM32.15 59.709L31.15 59.709L31.15 60.709L32.15 60.709L32.15 59.709ZM46.01 53.479L45.1872 52.9106L45.1851 52.9136L46.01 53.479ZM47.2 7.13898L48.0849 6.67323L48.0843 6.672L47.2 7.13898ZM29.28 2.58898L29.8197 3.43086L29.8272 3.42602L29.8347 3.42103L29.28 2.58898ZM26.0917 8.34264C25.1073 5.58617 23.6357 3.52092 21.6078 2.29348L20.5722 4.00448C22.0909 4.9237 23.326 6.54512 24.2083 9.01532L26.0917 8.34264ZM21.6155 2.29818C19.8065 1.18085 17.3549 0.678984 14.37 0.678984L14.37 2.67898C17.1718 2.67898 19.2002 3.15711 20.5645 3.99978L21.6155 2.29818ZM14.37 0.678984C11.6922 0.678984 9.34262 1.22002 7.36385 2.35074C5.3795 3.48466 3.82764 5.17784 2.69965 7.38369L4.48034 8.29427C5.45234 6.39345 6.74715 5.00664 8.35613 4.08723C9.9707 3.16461 11.9611 2.67898 14.37 2.67898L14.37 0.678984ZM2.69749 7.38793C0.38795 11.9579 -0.700007 19.801 -0.700007 30.729L1.29999 30.729C1.29999 19.8169 2.40537 12.4001 4.48249 8.29003L2.69749 7.38793ZM-0.700007 30.729C-0.700006 41.4947 0.855365 49.2903 4.18164 53.8577L5.79835 52.6803C2.87129 48.661 1.29999 41.4299 1.29999 30.729L-0.700007 30.729ZM4.18297 53.8595C7.23399 58.0292 12.2147 60.009 18.85 60.009L18.85 58.009C12.6053 58.009 8.34601 56.1621 5.79703 52.6785L4.18297 53.8595ZM19.85 59.009L19.85 40.809L17.85 40.809L17.85 59.009L19.85 59.009ZM18.85 39.809C17.0455 39.809 16.3304 39.2814 16.0553 38.6562L14.2247 39.4617C14.9763 41.1699 16.7345 41.809 18.85 41.809L18.85 39.809ZM16.048 38.6399C15.8419 38.1935 15.6432 37.3374 15.5049 35.9661C15.3696 34.6241 15.3 32.8816 15.3 30.729L13.3 30.729C13.3 32.9163 13.3704 34.7322 13.515 36.1668C13.6568 37.5723 13.8781 38.7111 14.232 39.478L16.048 38.6399ZM15.3 30.729C15.3 25.9849 15.493 23.0664 15.8262 21.8166L13.8938 21.3013C13.4804 22.8515 13.3 26.0464 13.3 30.729L15.3 30.729ZM15.8248 21.8221C15.9342 21.421 16.0701 21.2288 16.1657 21.1411C16.2412 21.0719 16.3415 21.019 16.54 21.019L16.54 19.019C15.8984 19.019 15.2988 19.2227 14.8143 19.6668C14.3499 20.0925 14.0658 20.6703 13.8952 21.2959L15.8248 21.8221ZM16.54 21.019C16.7002 21.019 16.8001 21.0633 16.9004 21.1636C17.0268 21.29 17.1898 21.5485 17.327 22.0386L19.253 21.4993C19.0635 20.8228 18.7715 20.2063 18.3146 19.7494C17.8316 19.2664 17.2198 19.019 16.54 19.019L16.54 21.019ZM17.3199 22.0115C17.6583 23.3651 17.85 26.32 17.85 31.009L19.85 31.009C19.85 26.3647 19.6684 23.1595 19.2601 21.5264L17.3199 22.0115ZM17.85 31.009L17.85 35.769L19.85 35.769L19.85 31.009L17.85 31.009ZM18.85 36.769L31.45 36.769L31.45 34.769L18.85 34.769L18.85 36.769ZM32.45 35.769L32.45 31.009L30.45 31.009L30.45 35.769L32.45 35.769ZM32.45 31.009C32.45 26.2341 32.7128 23.1583 33.1763 21.6412L31.2636 21.0568C30.7005 22.8996 30.45 26.2638 30.45 31.009L32.45 31.009ZM33.1788 21.6331C33.339 21.0925 33.5252 20.793 33.6796 20.6386C33.8081 20.5101 33.9333 20.459 34.11 20.459L34.11 18.459C33.4 18.459 32.7669 18.7229 32.2654 19.2244C31.7897 19.7 31.4744 20.3455 31.2612 21.0649L33.1788 21.6331ZM34.11 20.459C34.3456 20.459 34.4959 20.5215 34.6158 20.6192C34.7507 20.7291 34.9147 20.9406 35.0602 21.3407L36.9398 20.6572C36.712 20.0307 36.3743 19.4722 35.8792 19.0687C35.3691 18.6532 34.7611 18.459 34.11 18.459L34.11 20.459ZM35.043 21.289C35.4598 22.6647 35.7 25.6199 35.7 30.309L37.7 30.309C37.7 25.6647 37.4735 22.4133 36.957 20.709L35.043 21.289ZM35.7 30.309C35.7 32.7438 35.6303 34.7117 35.494 36.2216C35.355 37.7629 35.1538 38.7281 34.9408 39.2251L36.7791 40.0129C37.1262 39.2031 37.345 37.9634 37.486 36.4013C37.6297 34.808 37.7 32.7741 37.7 30.309L35.7 30.309ZM34.9339 39.2417C34.6405 39.962 33.9144 40.509 32.15 40.509L32.15 42.509C34.3056 42.509 36.0529 41.796 36.7861 39.9963L34.9339 39.2417ZM31.15 41.509L31.15 59.709L33.15 59.709L33.15 41.509L31.15 41.509ZM32.15 60.709C38.7734 60.709 43.7516 58.5428 46.8349 54.0443L45.1851 52.9136C42.575 56.7218 38.3133 58.709 32.15 58.709L32.15 60.709ZM46.8328 54.0473C50.1427 49.2553 51.7 41.2656 51.7 30.309L49.7 30.309C49.7 41.1924 48.1306 48.6493 45.1872 52.9107L46.8328 54.0473ZM51.7 30.309C51.7 19.2836 50.5418 11.3413 48.0849 6.67323L46.3151 7.60473C48.5249 11.8034 49.7 19.3077 49.7 30.309L51.7 30.309ZM48.0843 6.672C46.9099 4.44817 45.3251 2.74151 43.3205 1.59789C41.3204 0.456784 38.9601 -0.0910212 36.28 -0.0910211L36.28 1.90898C38.6866 1.90898 40.6896 2.3995 42.3295 3.33507C43.9649 4.26812 45.2968 5.67645 46.3157 7.60595L48.0843 6.672ZM36.28 -0.0910211C33.1851 -0.091021 30.6307 0.486631 28.7253 1.75693L29.8347 3.42103C31.2892 2.45133 33.4015 1.90898 36.28 1.90898L36.28 -0.0910211ZM28.7403 1.7471C26.6591 3.08121 25.1743 5.34633 24.1983 8.37198L26.1017 8.98598C26.9924 6.22497 28.2609 4.43009 29.8197 3.43086L28.7403 1.7471Z" fill="#FFBC1C"/>
</svg>
