<svg width="22" height="22" viewBox="0 0 22 22" fill="none" xmlns="http://www.w3.org/2000/svg">
<path d="M9.7575 1.00742L1.0075 9.75742C0.848178 9.92385 0.723289 10.1201 0.639999 10.3349C0.464967 10.761 0.464967 11.2389 0.639999 11.6649C0.723289 11.8797 0.848178 12.076 1.0075 12.2424L9.7575 20.9924C9.92067 21.1556 10.1144 21.285 10.3276 21.3733C10.5408 21.4616 10.7692 21.5071 11 21.5071C11.466 21.5071 11.913 21.322 12.2425 20.9924C12.572 20.6629 12.7572 20.2159 12.7572 19.7499C12.7572 19.2839 12.572 18.837 12.2425 18.5074L6.4675 12.7499L19.75 12.7499C20.2141 12.7499 20.6592 12.5655 20.9874 12.2374C21.3156 11.9092 21.5 11.464 21.5 10.9999C21.5 10.5358 21.3156 10.0907 20.9874 9.76248C20.6592 9.43429 20.2141 9.24992 19.75 9.24992L6.4675 9.24992L12.2425 3.49242C12.4065 3.32973 12.5367 3.13618 12.6256 2.92293C12.7144 2.70968 12.7601 2.48094 12.7601 2.24992C12.7601 2.0189 12.7144 1.79016 12.6256 1.57691C12.5367 1.36366 12.4065 1.17011 12.2425 1.00742C12.0798 0.843397 11.8863 0.713204 11.673 0.624359C11.4598 0.535513 11.231 0.489773 11 0.489773C10.769 0.489773 10.5402 0.535514 10.327 0.624359C10.1137 0.713204 9.92018 0.843397 9.7575 1.00742Z" fill="#FFCC00"/>
</svg>
