<svg width="78" height="93" viewBox="0 0 78 93" fill="none" xmlns="http://www.w3.org/2000/svg">
<path d="M63.1667 24.8333H58.3334V20C58.3334 14.8724 56.2965 9.95493 52.6708 6.32923C49.0451 2.70353 44.1276 0.666626 39 0.666626C33.8725 0.666626 28.955 2.70353 25.3293 6.32923C21.7036 9.95493 19.6667 14.8724 19.6667 20V24.8333H14.8334C10.9877 24.8333 7.2996 26.361 4.58033 29.0802C1.86105 31.7995 0.333374 35.4877 0.333374 39.3333V78C0.333374 81.8456 1.86105 85.5337 4.58033 88.253C7.2996 90.9723 10.9877 92.5 14.8334 92.5H63.1667C67.0123 92.5 70.7005 90.9723 73.4198 88.253C76.139 85.5337 77.6667 81.8456 77.6667 78V39.3333C77.6667 35.4877 76.139 31.7995 73.4198 29.0802C70.7005 26.361 67.0123 24.8333 63.1667 24.8333ZM29.3334 20C29.3334 17.4362 30.3518 14.9774 32.1647 13.1646C33.9775 11.3517 36.4363 10.3333 39 10.3333C41.5638 10.3333 44.0225 11.3517 45.8354 13.1646C47.6483 14.9774 48.6667 17.4362 48.6667 20V24.8333H29.3334V20ZM68 78C68 79.2818 67.4908 80.5112 66.5844 81.4176C65.678 82.3241 64.4486 82.8333 63.1667 82.8333H14.8334C13.5515 82.8333 12.3221 82.3241 11.4157 81.4176C10.5093 80.5112 10 79.2818 10 78V39.3333C10 38.0514 10.5093 36.822 11.4157 35.9156C12.3221 35.0092 13.5515 34.5 14.8334 34.5H63.1667C64.4486 34.5 65.678 35.0092 66.5844 35.9156C67.4908 36.822 68 38.0514 68 39.3333V78ZM46.25 56.1533C46.2465 57.3782 45.9347 58.5825 45.3435 59.6552C44.7522 60.7279 43.9004 61.6346 42.8667 62.2916V65.82C42.8667 66.8455 42.4593 67.829 41.7342 68.5541C41.009 69.2792 40.0255 69.6866 39 69.6866C37.9745 69.6866 36.991 69.2792 36.2659 68.5541C35.5408 67.829 35.1334 66.8455 35.1334 65.82V62.2916C34.0996 61.6346 33.2479 60.7279 32.6566 59.6552C32.0653 58.5825 31.7536 57.3782 31.75 56.1533C31.75 54.2305 32.5139 52.3864 33.8735 51.0268C35.2332 49.6671 37.0772 48.9033 39 48.9033C40.9229 48.9033 42.7669 49.6671 44.1266 51.0268C45.4862 52.3864 46.25 54.2305 46.25 56.1533Z" fill="white"/>
</svg>
