<svg width="18" height="21" viewBox="0 0 18 21" fill="none" xmlns="http://www.w3.org/2000/svg">
<path d="M14.4167 5.58335H13.3334V4.50002C13.3334 3.35075 12.8768 2.24855 12.0642 1.43589C11.2515 0.623233 10.1493 0.166687 9.00004 0.166687C7.85077 0.166687 6.74857 0.623233 5.93591 1.43589C5.12325 2.24855 4.66671 3.35075 4.66671 4.50002V5.58335H3.58337C2.72142 5.58335 1.89477 5.92576 1.28528 6.53526C0.675784 7.14475 0.333374 7.9714 0.333374 8.83335V17.5C0.333374 18.362 0.675784 19.1886 1.28528 19.7981C1.89477 20.4076 2.72142 20.75 3.58337 20.75H14.4167C15.2787 20.75 16.1053 20.4076 16.7148 19.7981C17.3243 19.1886 17.6667 18.362 17.6667 17.5V8.83335C17.6667 7.9714 17.3243 7.14475 16.7148 6.53526C16.1053 5.92576 15.2787 5.58335 14.4167 5.58335ZM6.83337 4.50002C6.83337 3.92538 7.06165 3.37428 7.46798 2.96796C7.8743 2.56163 8.4254 2.33335 9.00004 2.33335C9.57468 2.33335 10.1258 2.56163 10.5321 2.96796C10.9384 3.37428 11.1667 3.92538 11.1667 4.50002V5.58335H6.83337V4.50002ZM15.5 17.5C15.5 17.7873 15.3859 18.0629 15.1827 18.2661C14.9796 18.4692 14.704 18.5834 14.4167 18.5834H3.58337C3.29606 18.5834 3.02051 18.4692 2.81734 18.2661C2.61418 18.0629 2.50004 17.7873 2.50004 17.5V8.83335C2.50004 8.54604 2.61418 8.27049 2.81734 8.06732C3.02051 7.86416 3.29606 7.75002 3.58337 7.75002H14.4167C14.704 7.75002 14.9796 7.86416 15.1827 8.06732C15.3859 8.27049 15.5 8.54604 15.5 8.83335V17.5ZM10.625 12.6034C10.6242 12.8779 10.5544 13.1478 10.4218 13.3883C10.2893 13.6287 10.0984 13.8319 9.86671 13.9792V14.77C9.86671 14.9999 9.7754 15.2203 9.61287 15.3828C9.45033 15.5454 9.22989 15.6367 9.00004 15.6367C8.77019 15.6367 8.54975 15.5454 8.38721 15.3828C8.22468 15.2203 8.13337 14.9999 8.13337 14.77V13.9792C7.90167 13.8319 7.71076 13.6287 7.57824 13.3883C7.44571 13.1478 7.37583 12.8779 7.37504 12.6034C7.37504 12.1724 7.54624 11.7591 7.85099 11.4543C8.15574 11.1496 8.56906 10.9784 9.00004 10.9784C9.43102 10.9784 9.84434 11.1496 10.1491 11.4543C10.4538 11.7591 10.625 12.1724 10.625 12.6034Z" fill="white"/>
</svg>
