<svg width="36" height="36" viewBox="0 0 36 36" fill="none" xmlns="http://www.w3.org/2000/svg">
<path d="M16.25 11C16.25 10.5359 16.4344 10.0908 16.7626 9.76256C17.0908 9.43438 17.5359 9.25 18 9.25C18.3041 9.25665 18.6013 9.34246 18.8621 9.49897C19.123 9.65548 19.3385 9.87728 19.4875 10.1425C19.6553 10.3973 19.7465 10.6949 19.75 11C19.75 11.4641 19.5656 11.9092 19.2374 12.2374C18.9093 12.5656 18.4641 12.75 18 12.75C17.5359 12.75 17.0908 12.5656 16.7626 12.2374C16.4344 11.9092 16.25 11.4641 16.25 11ZM35.5 18C35.5 21.4612 34.4736 24.8446 32.5507 27.7225C30.6278 30.6003 27.8947 32.8434 24.697 34.1679C21.4993 35.4924 17.9806 35.839 14.5859 35.1637C11.1913 34.4885 8.07306 32.8218 5.62564 30.3744C3.17822 27.927 1.51151 24.8088 0.836266 21.4141C0.161024 18.0194 0.507582 14.5007 1.83212 11.303C3.15665 8.10533 5.39967 5.37221 8.27753 3.44928C11.1554 1.52636 14.5388 0.5 18 0.5C20.2981 0.5 22.5738 0.952651 24.697 1.83211C26.8202 2.71157 28.7493 4.00061 30.3744 5.62563C31.9994 7.25066 33.2884 9.17984 34.1679 11.303C35.0474 13.4262 35.5 15.7019 35.5 18ZM32 18C32 15.2311 31.1789 12.5243 29.6406 10.222C28.1022 7.91973 25.9157 6.12531 23.3576 5.06569C20.7994 4.00606 17.9845 3.72881 15.2687 4.26901C12.553 4.8092 10.0584 6.14257 8.10051 8.10051C6.14258 10.0584 4.80921 12.553 4.26901 15.2687C3.72882 17.9845 4.00607 20.7994 5.06569 23.3576C6.12532 25.9157 7.91974 28.1022 10.222 29.6406C12.5243 31.1789 15.2311 32 18 32C21.713 32 25.274 30.525 27.8995 27.8995C30.525 25.274 32 21.713 32 18ZM19.75 21.5V16.25C19.75 15.7859 19.5656 15.3408 19.2374 15.0126C18.9093 14.6844 18.4641 14.5 18 14.5H16.25C15.7859 14.5 15.3408 14.6844 15.0126 15.0126C14.6844 15.3408 14.5 15.7859 14.5 16.25C14.5 16.7141 14.6844 17.1592 15.0126 17.4874C15.3408 17.8156 15.7859 18 16.25 18V23.25C16.25 23.7141 16.4344 24.1593 16.7626 24.4874C17.0908 24.8156 17.5359 25 18 25H19.75C20.2141 25 20.6593 24.8156 20.9874 24.4874C21.3156 24.1593 21.5 23.7141 21.5 23.25C21.5 22.7859 21.3156 22.3408 20.9874 22.0126C20.6593 21.6844 20.2141 21.5 19.75 21.5Z" fill="white"/>
</svg>
