<svg width="22" height="22" viewBox="0 0 22 22" fill="none" xmlns="http://www.w3.org/2000/svg">
<path d="M9.91668 6.66663C9.91668 6.37931 10.0308 6.10376 10.234 5.90059C10.4371 5.69743 10.7127 5.58329 11 5.58329C11.1883 5.58741 11.3722 5.64053 11.5337 5.73742C11.6952 5.8343 11.8286 5.97161 11.9208 6.13579C12.0247 6.29352 12.0811 6.47777 12.0833 6.66663C12.0833 6.95394 11.9692 7.22949 11.766 7.43266C11.5629 7.63582 11.2873 7.74996 11 7.74996C10.7127 7.74996 10.4371 7.63582 10.234 7.43266C10.0308 7.22949 9.91668 6.95394 9.91668 6.66663ZM21.8333 11C21.8333 13.1426 21.198 15.2371 20.0076 17.0186C18.8172 18.8002 17.1253 20.1887 15.1457 21.0087C13.1662 21.8286 10.988 22.0431 8.88653 21.6251C6.78507 21.2071 4.85475 20.1754 3.33969 18.6603C1.82462 17.1452 0.792843 15.2149 0.374836 13.1134C-0.0431705 11.012 0.171366 8.83375 0.991315 6.85422C1.81126 4.87469 3.1998 3.18275 4.98133 1.99237C6.76286 0.80199 8.85738 0.166626 11 0.166626C12.4227 0.166626 13.8314 0.446838 15.1457 0.991264C16.4601 1.53569 17.6544 2.33367 18.6603 3.33964C19.6663 4.3456 20.4643 5.53986 21.0087 6.85422C21.5531 8.16858 21.8333 9.57731 21.8333 11ZM19.6667 11C19.6667 9.28586 19.1584 7.61024 18.2061 6.18502C17.2538 4.75979 15.9002 3.64896 14.3166 2.993C12.733 2.33704 10.9904 2.16542 9.30923 2.49982C7.62806 2.83423 6.08381 3.65965 4.87175 4.8717C3.6597 6.08376 2.83428 7.62801 2.49987 9.30918C2.16547 10.9903 2.33709 12.7329 2.99305 14.3165C3.64901 15.9002 4.75984 17.2537 6.18507 18.206C7.61029 19.1583 9.2859 19.6666 11 19.6666C13.2986 19.6666 15.503 18.7535 17.1283 17.1282C18.7536 15.5029 19.6667 13.2985 19.6667 11ZM12.0833 13.1666V9.91663C12.0833 9.62931 11.9692 9.35376 11.766 9.15059C11.5629 8.94743 11.2873 8.83329 11 8.83329H9.91668C9.62936 8.83329 9.35381 8.94743 9.15064 9.15059C8.94748 9.35376 8.83334 9.62931 8.83334 9.91663C8.83334 10.2039 8.94748 10.4795 9.15064 10.6827C9.35381 10.8858 9.62936 11 9.91668 11V14.25C9.91668 14.5373 10.0308 14.8128 10.234 15.016C10.4371 15.2192 10.7127 15.3333 11 15.3333H12.0833C12.3707 15.3333 12.6462 15.2192 12.8494 15.016C13.0525 14.8128 13.1667 14.5373 13.1667 14.25C13.1667 13.9626 13.0525 13.6871 12.8494 13.4839C12.6462 13.2808 12.3707 13.1666 12.0833 13.1666Z" fill="white"/>
</svg>
