<svg width="30" height="30" viewBox="0 0 30 30" fill="none" xmlns="http://www.w3.org/2000/svg">
<path d="M19.3533 0.833313H10.6615C2.7222 0.833313 0.833344 2.72217 0.833344 10.6466V19.3385C0.833344 27.2777 2.70751 29.1666 10.6467 29.1666H19.3386C27.2778 29.1666 29.1667 27.2925 29.1667 19.3532V10.6614C29.1667 2.72217 27.2925 0.833313 19.3533 0.833313ZM23.7066 21.0503H21.6406C20.8586 21.0503 20.6224 20.4157 19.2205 19.0138C17.9956 17.8333 17.4792 17.6857 17.1693 17.6857C16.7414 17.6857 16.6232 17.8037 16.6232 18.394V20.2534C16.6232 20.7552 16.4609 21.0503 15.1476 21.0503C13.8732 20.9647 12.6373 20.5775 11.5418 19.9207C10.4462 19.2639 9.52241 18.3563 8.84636 17.2725C7.24143 15.2749 6.12474 12.9303 5.58511 10.4253C5.58511 10.1154 5.70314 9.835 6.29345 9.835H8.35939C8.89064 9.835 9.08251 10.0711 9.28907 10.6172C10.2925 13.5685 12.0044 16.1362 12.6979 16.1362C12.9636 16.1362 13.0816 16.0182 13.0816 15.3541V12.3142C12.993 10.9271 12.2552 10.809 12.2552 10.3073C12.2649 10.1749 12.3259 10.0515 12.425 9.96337C12.5242 9.87519 12.6539 9.82914 12.7865 9.835H16.033C16.4757 9.835 16.6232 10.0564 16.6232 10.5876V14.6901C16.6232 15.1328 16.8151 15.2803 16.9479 15.2803C17.2136 15.2803 17.4201 15.1328 17.9071 14.6458C18.9536 13.3697 19.8086 11.9479 20.4453 10.4253C20.5103 10.2421 20.6335 10.0852 20.7961 9.9786C20.9586 9.872 21.1516 9.82157 21.3455 9.835H23.4115C24.0313 9.835 24.1641 10.1449 24.0313 10.5876C23.2795 12.271 22.3495 13.869 21.257 15.3541C21.0356 15.6935 20.9471 15.8706 21.257 16.269C21.4636 16.5789 22.1867 17.184 22.6737 17.7595C23.382 18.466 23.9701 19.2835 24.4149 20.1797C24.592 20.7552 24.2969 21.0503 23.7066 21.0503Z" fill="white"/>
</svg>
