<svg width="26" height="30" viewBox="0 0 26 30" fill="none" xmlns="http://www.w3.org/2000/svg">
<path d="M22.7628 0.833313H3.23728C2.84403 0.834249 2.45482 0.912636 2.09186 1.064C1.72891 1.21536 1.39933 1.43673 1.12193 1.71547C0.844531 1.9942 0.624754 2.32485 0.475147 2.68853C0.32554 3.05221 0.249033 3.4418 0.249994 3.83505V23.5356C0.249022 23.9288 0.325518 24.3184 0.475115 24.6821C0.624712 25.0458 0.844479 25.3764 1.12187 25.6551C1.39926 25.9339 1.72883 26.1553 2.09178 26.3066C2.45473 26.458 2.84393 26.5364 3.23718 26.5373H19.7612L18.9888 23.8416L20.854 25.5756L22.6171 27.2076L25.75 29.9761V3.83505C25.751 3.4418 25.6745 3.05222 25.5249 2.68854C25.3753 2.32486 25.1555 1.99422 24.8781 1.71548C24.6007 1.43674 24.2712 1.21536 23.9082 1.064C23.5453 0.91264 23.1561 0.834251 22.7628 0.833313ZM17.1383 19.8637C17.1383 19.8637 16.6137 19.237 16.1765 18.6833C17.2328 18.4346 18.167 17.8204 18.814 16.9493C18.2897 17.2983 17.7275 17.5867 17.1383 17.8089C16.4604 18.0983 15.7515 18.3086 15.0254 18.4356C13.7775 18.6654 12.4976 18.6604 11.2514 18.421C10.5199 18.2778 9.80288 18.0681 9.10944 17.7945C8.74391 17.6539 8.38847 17.4884 8.04563 17.299C8.00199 17.2699 7.95826 17.2553 7.91454 17.2261C7.89263 17.2152 7.87288 17.2005 7.85626 17.1825C7.59399 17.0368 7.44826 16.9348 7.44826 16.9348C8.07186 17.7876 8.97383 18.3958 9.99826 18.6541C9.56118 19.208 9.02199 19.8636 9.02199 19.8636C8.15643 19.8869 7.29841 19.6971 6.52343 19.3109C5.74846 18.9247 5.08029 18.3539 4.57773 17.6488C4.62503 14.6947 5.34249 11.79 6.67599 9.15358C7.8495 8.23192 9.2802 7.69731 10.7705 7.62358L10.9163 7.7985C9.51409 8.14542 8.20562 8.79715 7.08399 9.70731C7.08399 9.70731 7.40454 9.5325 7.94363 9.28476C8.99107 8.80664 10.1074 8.49683 11.2514 8.36676C11.333 8.34983 11.4159 8.34007 11.4992 8.33758C12.4757 8.21038 13.4638 8.20061 14.4426 8.3085C15.9818 8.48429 17.4718 8.95948 18.8285 9.70731C17.7637 8.84058 16.5271 8.20983 15.2003 7.85678L15.4043 7.62368C16.8946 7.69735 18.3253 8.23196 19.4988 9.15368C20.8324 11.79 21.5499 14.6947 21.5972 17.6488C21.0905 18.3532 20.4195 18.9232 19.6424 19.3092C18.8653 19.6952 18.0057 19.8855 17.1383 19.8636V19.8637ZM10.3625 13.0588C9.96697 13.0588 9.5876 13.2159 9.30789 13.4957C9.02818 13.7754 8.87105 14.1547 8.87105 14.5503C8.87106 14.9459 9.02821 15.3253 9.30793 15.605C9.58764 15.8847 9.96702 16.0418 10.3626 16.0418C10.7582 16.0418 11.1375 15.8847 11.4173 15.605C11.697 15.3253 11.8541 14.9459 11.8541 14.5503C11.8541 14.1547 11.697 13.7754 11.4173 13.4957C11.1376 13.2159 10.7582 13.0588 10.3626 13.0588H10.3625ZM15.6812 13.0588C15.3555 13.0312 15.029 13.1026 14.7445 13.2636C14.4601 13.4246 14.2308 13.6678 14.0869 13.9613C13.9429 14.2547 13.8909 14.5848 13.9376 14.9084C13.9844 15.2319 14.1277 15.5337 14.3489 15.7744C14.5701 16.0151 14.8588 16.1835 15.1772 16.2574C15.4956 16.3313 15.8289 16.3073 16.1335 16.1886C16.4381 16.0699 16.6997 15.862 16.8842 15.5922C17.0687 15.3223 17.1674 15.003 17.1673 14.6761C17.1761 14.4723 17.1445 14.2688 17.0745 14.0772C17.0045 13.8856 16.8975 13.7097 16.7594 13.5595C16.6214 13.4092 16.4552 13.2877 16.2701 13.2018C16.0851 13.1159 15.885 13.0673 15.6812 13.0588Z" fill="white"/>
</svg>
