<svg width="32" height="22" viewBox="0 0 32 22" fill="none" xmlns="http://www.w3.org/2000/svg">
<path d="M31.5833 7.75581C31.6534 5.72807 31.2099 3.7155 30.2942 1.90498C29.6728 1.16208 28.8105 0.660733 27.8575 0.488311C23.9157 0.130638 19.9575 -0.01596 16 0.0491441C12.0569 -0.0189149 8.113 0.122953 4.185 0.474144C3.40841 0.615409 2.68973 0.97967 2.11666 1.52248C0.841664 2.69831 0.699997 4.70998 0.558331 6.40998C0.35279 9.46653 0.35279 12.5334 0.558331 15.59C0.599315 16.5468 0.74178 17.4966 0.983331 18.4233C1.15415 19.1388 1.49974 19.8008 1.98916 20.35C2.56613 20.9215 3.30154 21.3065 4.1 21.455C7.15421 21.832 10.2316 21.9882 13.3083 21.9225C18.2667 21.9933 22.6158 21.9225 27.7583 21.5258C28.5764 21.3865 29.3325 21.001 29.9258 20.4208C30.3224 20.024 30.6187 19.5384 30.79 19.0041C31.2966 17.4495 31.5455 15.8225 31.5267 14.1875C31.5833 13.3941 31.5833 8.60581 31.5833 7.75581ZM12.7983 15.0375V6.26831L21.185 10.6741C18.8333 11.9775 15.7308 13.4508 12.7983 15.0375Z" fill="white"/>
</svg>
