<svg width="22" height="22" viewBox="0 0 22 22" fill="none" xmlns="http://www.w3.org/2000/svg">
<path d="M11 0.166687C8.85737 0.166687 6.76286 0.802051 4.98132 1.99243C3.19979 3.18282 1.81126 4.87475 0.991307 6.85428C0.171358 8.83382 -0.0431781 11.012 0.374828 13.1135C0.792835 15.215 1.82461 17.1453 3.33968 18.6603C4.85475 20.1754 6.78506 21.2072 8.88653 21.6252C10.988 22.0432 13.1662 21.8287 15.1457 21.0087C17.1253 20.1888 18.8172 18.8002 20.0076 17.0187C21.198 15.2372 21.8333 13.1427 21.8333 11C21.8333 9.57737 21.5531 8.16864 21.0087 6.85428C20.4643 5.53992 19.6663 4.34566 18.6603 3.3397C17.6544 2.33373 16.4601 1.53575 15.1457 0.991325C13.8314 0.4469 12.4227 0.166687 11 0.166687ZM11 19.6667C9.2859 19.6667 7.61029 19.1584 6.18506 18.2061C4.75983 17.2538 3.64901 15.9002 2.99305 14.3166C2.33709 12.733 2.16546 10.9904 2.49986 9.30924C2.83427 7.62807 3.65969 6.08382 4.87174 4.87176C6.0838 3.65971 7.62805 2.83429 9.30922 2.49988C10.9904 2.16548 12.733 2.33711 14.3166 2.99306C15.9002 3.64902 17.2538 4.75985 18.2061 6.18508C19.1584 7.6103 19.6667 9.28592 19.6667 11C19.6667 13.2986 18.7536 15.503 17.1283 17.1283C15.5029 18.7536 13.2985 19.6667 11 19.6667ZM15.3333 11C15.3333 11.2873 15.2192 11.5629 15.016 11.7661C14.8129 11.9692 14.5373 12.0834 14.25 12.0834H12.0833V14.25C12.0833 14.5373 11.9692 14.8129 11.766 15.0161C11.5629 15.2192 11.2873 15.3334 11 15.3334C10.7127 15.3334 10.4371 15.2192 10.234 15.0161C10.0308 14.8129 9.91667 14.5373 9.91667 14.25V12.0834H7.75C7.46268 12.0834 7.18713 11.9692 6.98397 11.7661C6.78081 11.5629 6.66667 11.2873 6.66667 11C6.66667 10.7127 6.78081 10.4372 6.98397 10.234C7.18713 10.0308 7.46268 9.91669 7.75 9.91669H9.91667V7.75002C9.91667 7.4627 10.0308 7.18715 10.234 6.98399C10.4371 6.78082 10.7127 6.66669 11 6.66669C11.2873 6.66669 11.5629 6.78082 11.766 6.98399C11.9692 7.18715 12.0833 7.4627 12.0833 7.75002V9.91669H14.25C14.5373 9.91669 14.8129 10.0308 15.016 10.234C15.2192 10.4372 15.3333 10.7127 15.3333 11Z" fill="white"/>
</svg>
