<svg width="14" height="14" viewBox="0 0 14 14" fill="none" xmlns="http://www.w3.org/2000/svg">
<path d="M13.8136 12.9137L9.47452 8.57466C10.1833 7.67289 10.6065 6.53656 10.6065 5.30328C10.6065 2.37902 8.2275 0 5.30324 0C2.37902 0 0 2.37902 0 5.30328C0 8.22746 2.37902 10.6065 5.30324 10.6065C6.53651 10.6065 7.67285 10.1833 8.57458 9.47456L12.9136 13.8136C13.0379 13.9379 13.2008 14 13.3636 14C13.5265 14 13.6894 13.9379 13.8136 13.8136C14.0622 13.5651 14.0622 13.1622 13.8136 12.9137ZM1.27273 5.30328C1.27273 3.08081 3.08081 1.27273 5.30324 1.27273C7.52572 1.27273 9.3338 3.08081 9.3338 5.30324C9.3338 7.52568 7.52572 9.33372 5.30324 9.33372C3.08081 9.33376 1.27273 7.52568 1.27273 5.30328Z" fill="#FFCC00"/>
</svg>
