<svg width="31" height="31" viewBox="0 0 31 31" fill="none" xmlns="http://www.w3.org/2000/svg">
<path d="M30.3742 28.1258L23.4075 21.175C25.1466 18.9634 26.0893 16.2301 26.0833 13.4167C26.0833 10.9114 25.3405 8.46247 23.9486 6.37945C22.5568 4.29643 20.5785 2.67291 18.264 1.7142C15.9495 0.755488 13.4026 0.504646 10.9455 0.993392C8.48844 1.48214 6.23145 2.68852 4.45999 4.45999C2.68852 6.23145 1.48214 8.48844 0.993392 10.9455C0.504646 13.4026 0.755488 15.9495 1.7142 18.264C2.67291 20.5785 4.29643 22.5568 6.37945 23.9486C8.46247 25.3405 10.9114 26.0833 13.4167 26.0833C16.2301 26.0893 18.9634 25.1466 21.175 23.4075L28.1258 30.3742C28.424 30.6723 28.8284 30.8398 29.25 30.8398C29.6717 30.8398 30.076 30.6723 30.3742 30.3742C30.6723 30.076 30.8398 29.6717 30.8398 29.25C30.8398 28.8284 30.6723 28.424 30.3742 28.1258ZM6.70334 20.2092C5.13085 18.6715 4.14061 16.6358 3.90157 14.4495C3.66253 12.2631 4.1895 10.0616 5.39256 8.2204C6.59563 6.37924 8.40025 5.01255 10.4986 4.35349C12.5969 3.69444 14.8588 3.78385 16.8986 4.60648C18.9383 5.42911 20.6294 6.93398 21.6834 8.86436C22.7374 10.7947 23.0889 13.031 22.6781 15.1917C22.2672 17.3523 21.1193 19.3035 19.4304 20.7123C17.7414 22.121 15.616 22.9001 13.4167 22.9167C10.898 22.9145 8.48323 21.9121 6.70334 20.13V20.2092Z" fill="#222221"/>
</svg>
