<svg width="10" height="20" viewBox="0 0 10 20" fill="none" xmlns="http://www.w3.org/2000/svg">
<path d="M1.90083 1.29L9.23416 9.29C9.32008 9.38296 9.38828 9.49356 9.43482 9.61542C9.48135 9.73728 9.50531 9.86799 9.50531 10C9.50531 10.132 9.48135 10.2627 9.43482 10.3846C9.38828 10.5064 9.32008 10.617 9.23416 10.71L1.90083 18.71C1.72822 18.8983 1.49411 19.0041 1.25 19.0041C1.00589 19.0041 0.771778 18.8983 0.599166 18.71C0.426555 18.5217 0.329582 18.2663 0.329582 18C0.329582 17.7337 0.426554 17.4783 0.599166 17.29L7.29083 10L0.599166 2.71C0.426554 2.5217 0.329582 2.2663 0.329582 2C0.329582 1.7337 0.426554 1.4783 0.599166 1.29C0.771777 1.1017 1.00589 0.995909 1.25 0.995909C1.49411 0.995909 1.72822 1.1017 1.90083 1.29Z" fill="#080B17"/>
</svg>
